<svg width="21" height="21" viewBox="0 0 24 24" fill="none" xmlns="http://www.w3.org/2000/svg">
<path fill-rule="evenodd" clip-rule="evenodd" d="M22.8 1.21681C22.1315 0.548242 21.0515 0.548242 20.3829 1.21681L12 9.58253L3.61718 1.19967C2.94861 0.531099 1.86861 0.531099 1.20004 1.19967C0.531466 1.86824 0.531466 2.94824 1.20004 3.61681L9.58289 11.9997L1.20004 20.3825C0.531466 21.0511 0.531466 22.1311 1.20004 22.7997C1.86861 23.4682 2.94861 23.4682 3.61718 22.7997L12 14.4168L20.3829 22.7997C21.0515 23.4682 22.1315 23.4682 22.8 22.7997C23.4686 22.1311 23.4686 21.0511 22.8 20.3825L14.4172 11.9997L22.8 3.61681C23.4515 2.96538 23.4515 1.86824 22.8 1.21681Z" fill="white"/>
</svg>
