<svg width="22" height="25" viewBox="0 0 22 25" fill="none" xmlns="http://www.w3.org/2000/svg">
<path fill-rule="evenodd" clip-rule="evenodd" d="M21.2215 3.16737L8.30643 8.44864H21.6938V11.4347H21.1738V22.8149C21.1738 23.5963 20.5305 24.2298 19.7371 24.2298H2.26308C1.46965 24.2298 0.826411 23.5963 0.826411 22.8149V11.4347H0.306396V8.44864H0.399668L18.957 0.860137C19.5655 0.611317 20.2636 0.895436 20.5163 1.4947L21.2215 3.16737ZM18.4569 22.4591C18.9534 22.4591 19.3559 22.0626 19.3559 21.5736V12.4999H2.64437V21.5736C2.64437 22.0626 3.04684 22.4591 3.54341 22.4591H18.4569Z" fill="white"/>
<path d="M6.80345 16.6777H4.14378C3.69533 16.6777 3.33179 16.3197 3.33179 15.878V14.8212C3.33179 14.3795 3.69533 14.0215 4.14378 14.0215H6.80345C7.2519 14.0215 7.61544 14.3795 7.61544 14.8212V15.878C7.61544 16.3197 7.2519 16.6777 6.80345 16.6777Z" fill="white"/>
<path d="M12.2507 16.6777H9.59105C9.1426 16.6777 8.77905 16.3197 8.77905 15.878V14.8212C8.77905 14.3795 9.1426 14.0215 9.59105 14.0215H12.2507C12.6992 14.0215 13.0627 14.3795 13.0627 14.8212V15.878C13.0627 16.3197 12.6992 16.6777 12.2507 16.6777Z" fill="white"/>
<path d="M17.8564 16.6777H15.1968C14.7483 16.6777 14.3848 16.3197 14.3848 15.878V14.8212C14.3848 14.3795 14.7483 14.0215 15.1968 14.0215H17.8564C18.3049 14.0215 18.6684 14.3795 18.6684 14.8212V15.878C18.6684 16.3197 18.3049 16.6777 17.8564 16.6777Z" fill="white"/>
</svg>
