<svg width="76" height="40" viewBox="0 0 76 40" fill="none" xmlns="http://www.w3.org/2000/svg">
<path d="M1.47 30L4.02 7.86H7.62L12.99 25.59L18.33 7.86H21.93L24.54 30H20.94L19.08 14.1L14.7 30H11.22L6.81 14.25L5.04 30H1.47ZM34.3034 30.15C32.6034 30.15 31.2234 29.91 30.1634 29.43C29.1034 28.95 28.3234 28.11 27.8234 26.91C27.3434 25.71 27.1034 24.05 27.1034 21.93C27.1034 19.71 27.3534 18.01 27.8534 16.83C28.3534 15.63 29.1334 14.81 30.1934 14.37C31.2534 13.93 32.6234 13.71 34.3034 13.71C36.0034 13.71 37.3834 13.94 38.4434 14.4C39.5234 14.86 40.3134 15.69 40.8134 16.89C41.3134 18.07 41.5634 19.75 41.5634 21.93C41.5634 24.09 41.3134 25.77 40.8134 26.97C40.3334 28.15 39.5634 28.98 38.5034 29.46C37.4434 29.92 36.0434 30.15 34.3034 30.15ZM34.3034 27.18C35.1034 27.18 35.7634 27.07 36.2834 26.85C36.8234 26.63 37.2134 26.15 37.4534 25.41C37.7134 24.65 37.8434 23.48 37.8434 21.9C37.8434 20.34 37.7134 19.19 37.4534 18.45C37.2134 17.71 36.8234 17.23 36.2834 17.01C35.7634 16.79 35.1034 16.68 34.3034 16.68C33.5034 16.68 32.8434 16.79 32.3234 17.01C31.8234 17.23 31.4434 17.71 31.1834 18.45C30.9234 19.19 30.7934 20.34 30.7934 21.9C30.7934 23.48 30.9234 24.65 31.1834 25.41C31.4434 26.15 31.8234 26.63 32.3234 26.85C32.8434 27.07 33.5034 27.18 34.3034 27.18ZM48.4526 30L42.8426 13.92H46.6526L50.6726 26.55L54.7826 13.92H58.5626L52.7126 30H48.4526ZM65.6939 37.11L67.5539 30C66.3739 30 65.3739 29.67 64.5539 29.01C63.7339 28.35 63.1339 27.31 62.7539 25.89L59.4539 13.92H63.2939L66.2039 25.14C66.3839 25.74 66.6139 26.17 66.8939 26.43C67.1739 26.67 67.4439 26.82 67.7039 26.88C67.9639 26.92 68.1339 26.94 68.2139 26.94L71.5439 13.92H75.3239L70.1639 34.14L68.7239 37.11H65.6939Z" fill="white"/>
<path d="M67.5 9C69.9853 9 72 6.98528 72 4.5C72 2.01472 69.9853 0 67.5 0C65.0147 0 63 2.01472 63 4.5C63 6.98528 65.0147 9 67.5 9Z" fill="#0578FF"/>
</svg>
