<svg width="32" height="32" viewBox="0 0 47 47" fill="none" xmlns="http://www.w3.org/2000/svg">
<path opacity="0.546805" fill-rule="evenodd" clip-rule="evenodd" d="M23.5 0C10.528 0 0 10.528 0 23.5C0 36.472 10.528 47 23.5 47C36.472 47 47 36.472 47 23.5C47 10.528 36.472 0 23.5 0ZM20.68 32.665L31.6545 24.44C32.289 23.97 32.289 23.03 31.6545 22.56L20.68 14.335C19.9045 13.7475 18.8 14.3115 18.8 15.275V31.725C18.8 32.6885 19.9045 33.2525 20.68 32.665ZM4.7 23.5C4.7 33.8635 13.1365 42.3 23.5 42.3C33.8635 42.3 42.3 33.8635 42.3 23.5C42.3 13.1365 33.8635 4.7 23.5 4.7C13.1365 4.7 4.7 13.1365 4.7 23.5Z" fill="white"/>
</svg>
