<svg width="165" height="165" viewBox="0 0 144 144" fill="none" xmlns="http://www.w3.org/2000/svg">
<path opacity="0.157529" fill-rule="evenodd" clip-rule="evenodd" d="M72 12C38.88 12 12 38.88 12 72C12 105.12 38.88 132 72 132C105.12 132 132 105.12 132 72C132 38.88 105.12 12 72 12ZM72 30C81.96 30 90 38.04 90 48C90 57.96 81.96 66 72 66C62.04 66 54 57.96 54 48C54 38.04 62.04 30 72 30ZM36 95.88C43.74 107.52 57 115.2 72 115.2C87 115.2 100.26 107.52 108 95.88C107.82 83.94 83.94 77.4 72 77.4C60 77.4 36.18 83.94 36 95.88Z" fill="black"/>
</svg>
