<svg width="19" height="19" viewBox="0 0 23 25" fill="none" xmlns="http://www.w3.org/2000/svg">
<path opacity="0.497442" fill-rule="evenodd" clip-rule="evenodd" d="M19.1667 17.6C18.1956 17.6 17.3267 17.975 16.6622 18.5625L7.55167 13.375C7.61556 13.0875 7.66667 12.8 7.66667 12.5C7.66667 12.2 7.61556 11.9125 7.55167 11.625L16.56 6.4875C17.25 7.1125 18.1572 7.5 19.1667 7.5C21.2878 7.5 23 5.825 23 3.75C23 1.675 21.2878 0 19.1667 0C17.0456 0 15.3333 1.675 15.3333 3.75C15.3333 4.05 15.3844 4.3375 15.4483 4.625L6.44 9.7625C5.75 9.1375 4.84278 8.75 3.83333 8.75C1.71222 8.75 0 10.425 0 12.5C0 14.575 1.71222 16.25 3.83333 16.25C4.84278 16.25 5.75 15.8625 6.44 15.2375L15.5378 20.4375C15.4739 20.7 15.4356 20.975 15.4356 21.25C15.4356 23.2625 17.1094 24.9 19.1667 24.9C21.2239 24.9 22.8978 23.2625 22.8978 21.25C22.8978 19.2375 21.2239 17.6 19.1667 17.6Z" fill="current"/>
</svg>
