<svg width="19" height="18" viewBox="0 0 16 15" fill="none" xmlns="http://www.w3.org/2000/svg">
<path fill-rule="evenodd" clip-rule="evenodd" d="M10.8476 4.5425L15.1412 4.91C15.9218 4.97125 16.2323 5.93375 15.638 6.44125L12.3823 9.22375L13.3581 13.3625C13.5355 14.115 12.7105 14.71 12.0363 14.3075L8.35489 12.1112L4.67344 14.2987C3.99924 14.7013 3.17424 14.1062 3.35166 13.3538L4.32747 9.22375L1.07182 6.44125C0.477468 5.93375 0.796823 4.97125 1.57747 4.91L5.86215 4.55125L7.53876 0.64875C7.84037 -0.06 8.8694 -0.06 9.17102 0.64875L10.8476 4.5425ZM8.35489 2.3375V10.475L11.6992 12.47L10.8121 8.725L13.7573 6.205L9.87182 5.8725L8.35489 2.3375Z" fill="#FFD000"/>
</svg>
