<svg width="23" height="23" viewBox="0 0 18 18" fill="none" xmlns="http://www.w3.org/2000/svg">
<path fill-rule="evenodd" clip-rule="evenodd" d="M11.71 10.9999H12.5L16.74 15.2599C17.15 15.6699 17.15 16.3399 16.74 16.7499C16.33 17.1599 15.66 17.1599 15.25 16.7499L11 12.4999V11.7099L10.73 11.4299C9.33002 12.6299 7.42002 13.2499 5.39002 12.9099C2.61002 12.4399 0.390015 10.1199 0.0500152 7.31989C-0.469985 3.08989 3.09002 -0.470107 7.32002 0.0498932C10.12 0.389893 12.44 2.60989 12.91 5.38989C13.25 7.41989 12.63 9.32989 11.43 10.7299L11.71 10.9999ZM2.00002 6.49989C2.00002 8.98989 4.01002 10.9999 6.50002 10.9999C8.99002 10.9999 11 8.98989 11 6.49989C11 4.00989 8.99002 1.99989 6.50002 1.99989C4.01002 1.99989 2.00002 4.00989 2.00002 6.49989Z" fill="white"/>
</svg>