<svg width="24" height="24" viewBox="0 0 24 24" fill="none" xmlns="http://www.w3.org/2000/svg">
<path fill-rule="evenodd" clip-rule="evenodd" d="M14.6667 2.20011V1.93345C14.6667 1.09345 15.5067 0.493447 16.28 0.800113C20.8 2.52011 24 6.88011 24 12.0001C24 17.1201 20.8 21.4801 16.28 23.2001C15.5067 23.4934 14.6667 22.9068 14.6667 22.0668V21.8001C14.6667 21.2934 14.9867 20.8534 15.4667 20.6668C18.9067 19.2934 21.3333 15.9201 21.3333 12.0001C21.3333 8.08011 18.9067 4.70678 15.4667 3.33345C15 3.14678 14.6667 2.70678 14.6667 2.20011ZM0 9.33345V14.6668C0 15.4001 0.6 16.0001 1.33333 16.0001H5.33333L9.72 20.3868C10.56 21.2268 12 20.6268 12 19.4401V4.54678C12 3.36011 10.56 2.76011 9.72 3.60011L5.33333 8.00011H1.33333C0.6 8.00011 0 8.60011 0 9.33345ZM18 12.0001C18 9.64011 16.64 7.61345 14.6667 6.62678V17.3601C16.64 16.3868 18 14.3601 18 12.0001Z" fill="white"/>
</svg>
